<svg width="32" height="32" viewBox="0 0 32 32" fill="none" xmlns="http://www.w3.org/2000/svg">
<path fill-rule="evenodd" clip-rule="evenodd" d="M14.6667 24C19.8214 24 24 19.8214 24 14.6667C24 9.51205 19.8214 5.33337 14.6667 5.33337C9.51205 5.33337 5.33337 9.51205 5.33337 14.6667C5.33337 19.8214 9.51205 24 14.6667 24ZM14.6667 8.33337C13.835 8.33337 13.0114 8.49719 12.243 8.81547C11.4746 9.13375 10.7765 9.60026 10.1884 10.1884C9.60026 10.7765 9.13375 11.4747 8.81547 12.243C8.49719 13.0114 8.33337 13.835 8.33337 14.6667C8.33337 15.219 8.78109 15.6667 9.33337 15.6667C9.88566 15.6667 10.3334 15.219 10.3334 14.6667C10.3334 14.0976 10.4455 13.5342 10.6632 13.0084C10.881 12.4827 11.2002 12.005 11.6026 11.6026C12.005 11.2002 12.4827 10.881 13.0084 10.6632C13.5342 10.4455 14.0976 10.3334 14.6667 10.3334C15.219 10.3334 15.6667 9.88566 15.6667 9.33337C15.6667 8.78109 15.219 8.33337 14.6667 8.33337Z" fill="#606060"/>
<path d="M26.6667 26.6667L24 24" stroke="#606060" stroke-width="2" stroke-linecap="round"/>
</svg>
