<svg width="32" height="32" viewBox="0 0 32 32" fill="none" xmlns="http://www.w3.org/2000/svg">
<path fill-rule="evenodd" clip-rule="evenodd" d="M4.58579 3.25253C4 3.83832 4 4.78113 4 6.66674V23.3334C4 26.1618 4 27.5761 4.87868 28.4547C5.72214 29.2982 7.05907 29.332 9.66667 29.3334V25.3334C9.66667 24.7811 10.1144 24.3334 10.6667 24.3334C11.219 24.3334 11.6667 24.7811 11.6667 25.3334V29.3334L20.3333 29.3334L20.3333 25.3334C20.3333 24.7811 20.781 24.3334 21.3333 24.3334C21.8856 24.3334 22.3333 24.7811 22.3333 25.3334L22.3333 29.3334C24.9409 29.332 26.2779 29.2982 27.1213 28.4547C28 27.5761 28 26.1618 28 23.3334V6.66675C28 4.78113 28 3.83832 27.4142 3.25253C26.8284 2.66675 25.8856 2.66675 24 2.66675H8C6.11438 2.66675 5.17157 2.66675 4.58579 3.25253ZM10.6667 11.0001C10.1144 11.0001 9.66667 11.4478 9.66667 12.0001C9.66667 12.5524 10.1144 13.0001 10.6667 13.0001H21.3333C21.8856 13.0001 22.3333 12.5524 22.3333 12.0001C22.3333 11.4478 21.8856 11.0001 21.3333 11.0001H10.6667ZM10.6667 18.3334L21.3333 18.3334C21.8856 18.3334 22.3333 17.8857 22.3333 17.3334C22.3333 16.7811 21.8856 16.3334 21.3333 16.3334L10.6667 16.3334C10.1144 16.3334 9.66667 16.7811 9.66667 17.3334C9.66667 17.8857 10.1144 18.3334 10.6667 18.3334Z" fill="#606060"/>
</svg>
