<svg width="32" height="32" viewBox="0 0 32 32" fill="none" xmlns="http://www.w3.org/2000/svg">
<path fill-rule="evenodd" clip-rule="evenodd" d="M3.25241 7.25253C2.66663 7.83832 2.66663 8.78113 2.66663 10.6667V21.3334C2.66663 23.219 2.66663 24.1618 3.25241 24.7476C3.8382 25.3334 4.78101 25.3334 6.66662 25.3334H25.3333C27.2189 25.3334 28.1617 25.3334 28.7475 24.7476C29.3333 24.1618 29.3333 23.219 29.3333 21.3334V10.6667C29.3333 8.78113 29.3333 7.83832 28.7475 7.25253C28.1617 6.66675 27.2189 6.66675 25.3333 6.66675H6.66663C4.78101 6.66675 3.8382 6.66675 3.25241 7.25253ZM6.66663 9.66675C6.11434 9.66675 5.66663 10.1145 5.66663 10.6667C5.66663 11.219 6.11434 11.6667 6.66663 11.6667H9.33329C9.88558 11.6667 10.3333 11.219 10.3333 10.6667C10.3333 10.1145 9.88558 9.66675 9.33329 9.66675H6.66663ZM21.6666 21.3334C21.6666 20.7811 22.1143 20.3334 22.6666 20.3334H25.3333C25.8856 20.3334 26.3333 20.7811 26.3333 21.3334C26.3333 21.8857 25.8856 22.3334 25.3333 22.3334H22.6666C22.1143 22.3334 21.6666 21.8857 21.6666 21.3334ZM18 16.0001C18 17.1047 17.1045 18.0001 16 18.0001C14.8954 18.0001 14 17.1047 14 16.0001C14 14.8955 14.8954 14.0001 16 14.0001C17.1045 14.0001 18 14.8955 18 16.0001ZM20 16.0001C20 18.2092 18.2091 20.0001 16 20.0001C13.7908 20.0001 12 18.2092 12 16.0001C12 13.7909 13.7908 12.0001 16 12.0001C18.2091 12.0001 20 13.7909 20 16.0001Z" fill="#606060"/>
</svg>
