<svg width="32" height="32" viewBox="0 0 32 32" fill="none" xmlns="http://www.w3.org/2000/svg">
<path fill-rule="evenodd" clip-rule="evenodd" d="M11.8169 6.18483C8.005 7.81146 5.33325 11.5937 5.33325 16C5.33325 16.435 5.35929 16.8639 5.40989 17.2853L14.1628 14.94L11.8169 6.18483ZM14.7151 5.40997L17.19 14.6465L17.2016 14.6898C17.2516 14.8756 17.3222 15.1375 17.3531 15.3777C17.3921 15.6804 17.4013 16.1592 17.1196 16.6471C16.8379 17.135 16.4187 17.3664 16.137 17.484C15.9135 17.5773 15.6514 17.6472 15.4656 17.6967L15.4222 17.7083L6.18487 20.1835C7.81158 23.9951 11.5938 26.6667 15.9999 26.6667C21.891 26.6667 26.6666 21.8911 26.6666 16C26.6666 10.109 21.891 5.33337 15.9999 5.33337C15.5651 5.33337 15.1363 5.3594 14.7151 5.40997Z" fill="#606060"/>
<path d="M13.0667 5.0528C12.8169 4.12049 12.692 3.65434 12.2785 3.45533C11.865 3.25632 11.4644 3.4313 10.6632 3.78127C9.67571 4.21256 8.7419 4.76296 7.88314 5.42191C6.49401 6.48783 5.32843 7.81692 4.45295 9.33329C3.57747 10.8497 3.00924 12.5236 2.78069 14.2596C2.63941 15.3328 2.62965 16.4167 2.74986 17.4875C2.84741 18.3564 2.89618 18.7908 3.27526 19.0494C3.65434 19.308 4.12049 19.1831 5.0528 18.9332L14.0681 16.5176C14.9788 16.2736 15.4341 16.1516 15.6412 15.7929C15.8483 15.4341 15.7263 14.9788 15.4823 14.0681L13.0667 5.0528Z" fill="#606060"/>
</svg>
