<svg width="24" height="24" viewBox="0 0 24 24" fill="none" xmlns="http://www.w3.org/2000/svg">
<path fill-rule="evenodd" clip-rule="evenodd" d="M4.30783 8.80419C4 9.47348 4 10.2349 4 11.7577V16.5137C4 18.6285 4 19.686 4.65701 20.343C5.26687 20.9529 6.22175 20.9966 8.04712 20.9998V15.3922C8.04712 14.2204 8.99698 13.2706 10.1687 13.2706H13.5334C14.7052 13.2706 15.655 14.2204 15.655 15.3922V20.9998C17.4804 20.9966 18.4353 20.9529 19.0451 20.343C19.7021 19.686 19.7021 18.6285 19.7021 16.5137V11.7577C19.7021 10.2349 19.7021 9.47348 19.3943 8.80419C19.0865 8.13489 18.5084 7.63937 17.3521 6.64832L16.2306 5.68697C14.1407 3.89566 13.0958 3 11.8511 3C10.6064 3 9.56144 3.89566 7.47158 5.68697L6.35 6.64832C5.19377 7.63937 4.61566 8.13489 4.30783 8.80419ZM13.655 21V15.3922C13.655 15.325 13.6006 15.2706 13.5334 15.2706H10.1687C10.1016 15.2706 10.0471 15.325 10.0471 15.3922V21H13.655Z" fill="#E0EBF4"/>
</svg>
