<svg width="24" height="24" viewBox="0 0 24 24" fill="none" xmlns="http://www.w3.org/2000/svg">
<g clip-path="url(#clip0_276_6138)">
<path d="M12.5 19.3C12.5 19.3 3.5 14.4318 3.5 8.52046C3.5 7.47544 3.87484 6.4627 4.56076 5.65454C5.24667 4.84639 6.20128 4.29274 7.26218 4.08779C8.32307 3.88285 9.42471 4.03927 10.3797 4.53044C11.3346 5.02161 12.0839 5.81719 12.5 6.78182C12.9161 5.81719 13.6654 5.02161 14.6203 4.53044C15.5753 4.03927 16.6769 3.88285 17.7378 4.08779C18.7987 4.29274 19.7533 4.84639 20.4392 5.65454C21.1252 6.4627 21.5 7.47544 21.5 8.52046C21.5 14.4318 12.5 19.3 12.5 19.3Z" fill="#E0EBF4"/>
</g>
<defs>
<clipPath id="clip0_276_6138">
<rect width="24" height="24" fill="white"/>
</clipPath>
</defs>
</svg>
